<?xml version="1.0" encoding="UTF-8"?>
<svg id="Lager_2" data-name="Lager 2" xmlns="http://www.w3.org/2000/svg" viewBox="0 0 551.51 205.42">
  <defs>
    <style>
      .cls-1 {
        fill: #fff;
      }

      .cls-2 {
        fill: #2f5e9f;
      }

      .cls-3, .cls-4 {
        isolation: isolate;
      }

      .cls-4 {
        fill: #0a0b0b;
        font-family: RobotoSlab-Medium, 'Roboto Slab';
        font-size: 80.4px;
        font-weight: 500;
      }

      .cls-5 {
        stroke: #1d1d1b;
        stroke-miterlimit: 10;
        stroke-width: .25px;
      }
    </style>
  </defs>
  <g id="Lager_2-2" data-name="Lager 2">
    <g id="Lager_1-2" data-name="Lager 1-2">
      <circle class="cls-2" cx="108.72" cy="84.41" r="62.02"/>
      <g>
        <g>
          <path class="cls-1" d="M148.08,80.56c-.85,1.77-.85,2.99-1.52,4.59-1.23,2.95-4.59,5.56-6.61,8.12s-3.26,5.19-5.88,7.35c-1.64,1.36-3.62,2.14-5.23,3.51-1.97,1.69-3.52,4.68-6.32,5.18-.75.14-1.6-.19-2.5.22-.41.19-.28.56-.3.58-.16.09-.36-.39-.62-.41-.19-.02-.54.29-.86.31-7.33.49-13.37.43-20.65,2.06-2.76.62-7.47-.83-10.7-.96-1.7-.07-2.25.26-3.54.45-.31.05-.57-.42-.94-.44-.4-.03-2.01,1-2.27.76-.05-.04-.33-.81-.62-1.27-.61-.94-2.04-1.73-2.87-2.63-2.79-3.04-4.24-9.34-4.25-13.4,0-2.4.81-5.74,0-8.24.1-.18,3.67-1.61,4.21-2.01,1.96-1.43,2.72-4.89,3.77-6.96,1.7-3.36,6.5-9.41,9.37-11.85,1.58-1.34,3.64-1.61,5.12-3.11,2.85-2.9.93-6.11,3.25-9.13.62-.81,4.29-2.4,5.04-3.17.48-.49.25-1.63,1.76-1.13,1.12,2.1,2.64,3.95,3.89,5.97.57.91.88,2.24,1.54,3.2.87,1.27,2.46,2.72,3.46,4.03,2.69,3.51,7.27,10.09,11.44,11.78.3.12,5,.71,5.56.71,1.27-.02,2.33-.58,3.52-.74,3.79-.51,6.47-.09,9.71-2.77,5.05-4.18,7.35-7.85,8.64-14.53,1.1-5.68-.67-7-2.17-11.83-.73-2.34-.94-5.3-1.47-7.69l5.41,7.65c1,1.85.91,4.18.97,6.29.18,7-.91,16.44-3.79,22.95-.98,2.21-2.5,4.31-3.57,6.55h.02Z"/>
          <path class="cls-1" d="M101.26,35.52c.08.05.42.79.79,1.08.58.46,1.27.65,1.76,1.24.89,1.06,1.44,4.21.87,5.37-.06.13-1.78,2.68-1.99,2.82-4.83,3.12-10.94,2.73-15.72,6.37l-8.95.91c.2-3.69,3.66-5.14,5.06-6.98,1.23-1.62,2.23-3.4,3.51-4.98.35-.43,2.88-3.37,3.11-3.37.1,0,.44.59.8.7,2.53.76,9-4.17,10.75-3.15h0Z"/>
        </g>
        <path class="cls-5" d="M104.95,49.25c-1.28-.4-1.49.73-2.07,1.21-1.95,1.6-3.82,2.3-4.97,4.76-1.09,2.33-.7,4.39-2.4,6.59s-3.66,2.34-5.6,3.88c-2.77,2.19-7.72,8.43-9.42,11.55-1.13,2.08-1.84,5.54-3.59,7.15-.77.7-3.75,1.78-3.99,2.27.5,4.29-.83,9,.26,13.24.69,2.68,2.08,6.27,3.87,8.37,1.68,1.97,5.02,3.03,1.98,5.47-8.18,6.57-15.03,13.73-20.24,22.95-.68,1.2-1.18,2.8-1.91,4.08-4.62,8.12-11.68,14.46-16.62,22.33-4.5,7.16-8.29,14.77-12.73,21.98-1.55,2.52-4.6,8.5-6.65,10.08-.97.74-2.4,1.17-3.35,1.89-1.3.98-2.78,3.26-3.99,4.5-2.63,2.68-3.79,2.8-7.44,3.3-.43.06-.87.4-1.33.44-.53.04-2.71-.29-3.18-.52-1.54-.78-1.53-2.6-1.41-4.1.44-5.5,7.1-11.4,10.1-15.61.86-1.21,1.36-3.04,2.18-4.31.72-1.11,1.95-2.05,2.66-3.08,2.35-3.36,4.3-8.28,6.49-11.99,3.5-5.92,8-12.03,11.08-18.13,1.64-3.25,2.57-6.34,4.64-9.59,2.24-3.51,5.39-6.6,6.98-10.5,1.31-3.23,2.38-6.45,4.25-9.49,1.12-1.83,2.96-3.4,4.15-5.08,2.45-3.45,4.27-7.93,5.51-11.97.44-1.44,1.02-3.29,1-4.75-2.08.54-3.75,3.69-5.27,4.46-.68.35-1.24.19-1.85.4-1.12.38-6.05,4.98-7.35,6.13-.39.35-.51.92-1.03,1.22-1.03.6-2.35.15-2.37-1.09s4.52-6.75,5.47-8.28c3.29-5.28,5.95-11.87,9.57-16.9,1.47-2.04,3.97-3.53,5.56-5.43,1.83-2.2,2.86-4.87,4.18-7.31,2.1-3.9,4.98-7.28,7.82-10.65.78-.92,2.9-2.53,3.34-3.4.57-1.12.09-2.86,1.16-3.84l-.37,1.75c1.55-.18,3.13-.72,4.64-.97,1.19-.19,2.64.06,3.9-.34,1.99-.64,4.47-2.67,6.93-3.31,3.67-.95,4.92-.42,8.48-2.75,2.27-1.49,2.87-2.42,2.49-5.21-.31-2.25-1.41-2.47-2.85-3.64-.39-.32-.51-1.04-1.05-1.2-1.59-.5-4.42,1.42-5.89,2-.85.33-3.36,1.32-4.09,1.39-.97.1-1.29-.86-.95-1.68.53-1.28,2.75-3.97,3.86-4.88,2.31-1.89,6.57-2.73,9.05-4.61,2.04-1.54.33-2.68-.36-4.08-.52-1.05-1.26-3.57-1.94-4.3-1.37-1.46-6.39-2.72-8.38-2.63s-6.63,2.1-8,1.27c-1.47-.89-.08-2.13.27-3.01.61-1.5.28-1.9,1.86-3.13.38-.29,3.96-2.7,4.19-2.8,2.11-.96,6.6-.72,8.73-1.76,1.06-.52,4.4-3.09,5.74-3.99,1.57-1.05,3.33-3.02,5.21-3.28,3.14-.43,9.19-.07,12.46.23,2.89.27,4.31,2.26,6.54,3.7,1.52.98,4.31,1.99,5.45,3.04,2.04,1.89,5.86,9.18,6.8,11.93s1.68,4.68,2.7,7.29c.56,1.46.95,4.15,1.57,5.43.5,1.04,2.4,2.71,3.15,3.84,1.96,2.96,1.24,6.25,2.27,9.46,1.25,3.91,2.72,5.48,2.37,10.11-.22,2.88-2.93,11.02-5.26,12.72-1.78,1.3-2.45,2.21-3.99,3.5-3.15,2.63-5.88,2.19-9.57,2.67-.99.13-2.02.64-3.02.72-.77.06-5.15-.45-5.82-.66-.76-.24-3.31-2.12-4.01-2.73-2.96-2.59-8.6-9.51-10.87-12.85-.65-.95-.9-2.19-1.43-3.07-1.32-2.17-2.86-4.23-4.25-6.36l-.05-.04Z"/>
      </g>
      <g class="cls-3">
        <text class="cls-4" transform="translate(184.22 112.23)"><tspan x="0" y="0">Har</tspan></text>
        <text class="cls-4" transform="translate(325.82 112.23)"><tspan x="0" y="0">r</tspan></text>
        <text class="cls-4" transform="translate(359.66 112.23)"><tspan x="0" y="0">ak</tspan></text>
        <text class="cls-4" transform="translate(455.77 112.23)"><tspan x="0" y="0">k</tspan></text>
        <text class="cls-4" transform="translate(506.6 112.23)"><tspan x="0" y="0">a</tspan></text>
      </g>
    </g>
  </g>
</svg>