<?xml version="1.0" encoding="UTF-8"?>
<svg id="Lager_2" data-name="Lager 2" xmlns="http://www.w3.org/2000/svg" viewBox="0 0 490.15 164.39">
  <defs>
    <style>
      .cls-1 {
        fill: #fff;
      }

      .cls-2 {
        fill: #2f5e9f;
      }

      .cls-3 {
        font-family: CascadiaCodeRoman-Bold, 'Cascadia Code';
        font-size: 80px;
        font-variation-settings: 'wght' 700;
        font-weight: 700;
      }

      .cls-4 {
        stroke: #1d1d1b;
        stroke-miterlimit: 10;
        stroke-width: .25px;
      }
    </style>
  </defs>
  <g id="Lager_2-2" data-name="Lager 2">
    <g id="Lager_1-2" data-name="Lager 1-2">
      <circle class="cls-2" cx="86.7" cy="75.94" r="51.37"/>
      <g>
        <g>
          <path class="cls-1" d="M118.49,64.48c-.68,1.42-.68,2.39-1.22,3.67-.98,2.36-3.67,4.45-5.29,6.5s-2.61,4.15-4.7,5.88c-1.31,1.09-2.9,1.71-4.18,2.81-1.58,1.35-2.82,3.74-5.06,4.14-.6.11-1.28-.15-2,.18-.33.15-.22.45-.24.46-.13.07-.29-.31-.5-.33-.15-.02-.43.23-.69.25-5.86.39-10.7.34-16.52,1.65-2.21.5-5.98-.66-8.56-.77-1.36-.06-1.8.21-2.83.36-.25.04-.46-.34-.75-.35-.32-.02-1.61.8-1.82.61-.04-.03-.26-.65-.5-1.02-.49-.75-1.63-1.38-2.3-2.1-2.23-2.43-3.39-7.47-3.4-10.72,0-1.92.65-4.59,0-6.59.08-.14,2.94-1.29,3.37-1.61,1.57-1.14,2.18-3.91,3.02-5.57,1.36-2.69,5.2-7.53,7.5-9.48,1.26-1.07,2.91-1.29,4.1-2.49,2.28-2.32.74-4.89,2.6-7.3.5-.65,3.43-1.92,4.03-2.54.38-.39.2-1.3,1.41-.9.9,1.68,2.11,3.16,3.11,4.78.46.73.7,1.79,1.23,2.56.7,1.02,1.97,2.18,2.77,3.22,2.15,2.81,5.82,8.07,9.15,9.42.24.1,4,.57,4.45.57,1.02-.02,1.86-.46,2.82-.59,3.03-.41,5.18-.07,7.77-2.22,4.04-3.34,5.88-6.28,6.91-11.62.88-4.54-.54-5.6-1.74-9.46-.58-1.87-.75-4.24-1.18-6.15l4.33,6.12c.8,1.48.73,3.34.78,5.03.14,5.6-.73,13.15-3.03,18.36-.78,1.77-2,3.45-2.86,5.24h.02Z"/>
          <path class="cls-1" d="M81.04,28.44c.06.04.34.63.63.86.46.37,1.02.52,1.41.99.71.85,1.15,3.37.7,4.3-.05.1-1.42,2.14-1.59,2.26-3.86,2.5-8.75,2.18-12.58,5.1l-7.16.73c.16-2.95,2.93-4.11,4.05-5.58.98-1.3,1.78-2.72,2.81-3.98.28-.34,2.3-2.7,2.49-2.7.08,0,.35.47.64.56,2.02.61,7.2-3.34,8.6-2.52h0Z"/>
        </g>
        <path class="cls-4" d="M83.99,39.43c-1.02-.32-1.19.58-1.66.97-1.56,1.28-3.06,1.84-3.98,3.81-.87,1.86-.56,3.51-1.92,5.27s-2.93,1.87-4.48,3.1c-2.22,1.75-6.18,6.74-7.54,9.24-.9,1.66-1.47,4.43-2.87,5.72-.62.56-3,1.42-3.19,1.82.4,3.43-.66,7.2.21,10.59.55,2.14,1.66,5.02,3.1,6.7,1.34,1.58,4.02,2.42,1.58,4.38-6.54,5.26-12.02,10.98-16.19,18.36-.54.96-.94,2.24-1.53,3.26-3.7,6.5-9.34,11.57-13.3,17.86-3.6,5.73-6.63,11.82-10.18,17.58-1.24,2.02-3.68,6.8-5.32,8.06-.78.59-1.92.94-2.68,1.51-1.04.78-2.22,2.61-3.19,3.6-2.1,2.14-3.03,2.24-5.95,2.64-.34.05-.7.32-1.06.35-.42.03-2.17-.23-2.54-.42-1.23-.62-1.22-2.08-1.13-3.28.35-4.4,5.68-9.12,8.08-12.49.69-.97,1.09-2.43,1.74-3.45.58-.89,1.56-1.64,2.13-2.46,1.88-2.69,3.44-6.62,5.19-9.59,2.8-4.74,6.4-9.62,8.86-14.5,1.31-2.6,2.06-5.07,3.71-7.67,1.79-2.81,4.31-5.28,5.58-8.4,1.05-2.58,1.9-5.16,3.4-7.59.9-1.46,2.37-2.72,3.32-4.06,1.96-2.76,3.42-6.34,4.41-9.58.35-1.15.82-2.63.8-3.8-1.66.43-3,2.95-4.22,3.57-.54.28-.99.15-1.48.32-.9.3-4.84,3.98-5.88,4.9-.31.28-.41.74-.82.98-.82.48-1.88.12-1.9-.87s3.62-5.4,4.38-6.62c2.63-4.22,4.76-9.5,7.66-13.52,1.18-1.63,3.18-2.82,4.45-4.34,1.46-1.76,2.29-3.9,3.34-5.85,1.68-3.12,3.98-5.82,6.26-8.52.62-.74,2.32-2.02,2.67-2.72.46-.9.07-2.29.93-3.07l-.3,1.4c1.24-.14,2.5-.58,3.71-.78.95-.15,2.11.05,3.12-.27,1.59-.51,3.58-2.14,5.54-2.65,2.94-.76,3.94-.34,6.78-2.2,1.82-1.19,2.3-1.94,1.99-4.17-.25-1.8-1.13-1.98-2.28-2.91-.31-.26-.41-.83-.84-.96-1.27-.4-3.54,1.14-4.71,1.6-.68.26-2.69,1.06-3.27,1.11-.78.08-1.03-.69-.76-1.34.42-1.02,2.2-3.18,3.09-3.9,1.85-1.51,5.26-2.18,7.24-3.69,1.63-1.23.26-2.14-.29-3.26-.42-.84-1.01-2.86-1.55-3.44-1.1-1.17-5.11-2.18-6.7-2.1s-5.3,1.68-6.4,1.02c-1.18-.71-.06-1.7.22-2.41.49-1.2.22-1.52,1.49-2.5.3-.23,3.17-2.16,3.35-2.24,1.69-.77,5.28-.58,6.98-1.41.85-.42,3.52-2.47,4.59-3.19,1.26-.84,2.66-2.42,4.17-2.62,2.51-.34,7.35-.06,9.97.18,2.31.22,3.45,1.81,5.23,2.96,1.22.78,3.45,1.59,4.36,2.43,1.63,1.51,4.69,7.34,5.44,9.54s1.34,3.74,2.16,5.83c.45,1.17.76,3.32,1.26,4.34.4.83,1.92,2.17,2.52,3.07,1.57,2.37.99,5,1.82,7.57,1,3.13,2.18,4.38,1.9,8.09-.18,2.3-2.34,8.82-4.21,10.18-1.42,1.04-1.96,1.77-3.19,2.8-2.52,2.1-4.7,1.75-7.66,2.14-.79.1-1.62.51-2.42.58-.62.05-4.12-.36-4.66-.53-.61-.19-2.65-1.7-3.21-2.18-2.37-2.07-6.88-7.61-8.7-10.28-.52-.76-.72-1.75-1.14-2.46-1.06-1.74-2.29-3.38-3.4-5.09l-.04-.03Z"/>
      </g>
    </g>
    <text class="cls-3" transform="translate(162.02 109.11)"><tspan x="0" y="0">Harakka</tspan></text>
  </g>
</svg>